<?xml version="1.0" encoding="UTF-8" standalone="no"?>
<!DOCTYPE svg PUBLIC "-//W3C//DTD SVG 1.1//EN" "http://www.w3.org/Graphics/SVG/1.1/DTD/svg11.dtd">
<svg width="100%" height="100%" viewBox="0 0 188 204" version="1.1" xmlns="http://www.w3.org/2000/svg" xmlns:xlink="http://www.w3.org/1999/xlink" xml:space="preserve" xmlns:serif="http://www.serif.com/" style="fill-rule:evenodd;clip-rule:evenodd;stroke-linejoin:round;stroke-miterlimit:2;">
    <g transform="matrix(1,0,0,1,-212.862,0)">
        <g id="Artboard2" transform="matrix(1,0,0,1,212.862,0)">
            <rect x="0" y="0" width="188" height="204" style="fill:none;"/>
            <g id="logo">
                <g id="explosion">
                    <path d="M98.246,69.831C97.815,70.001 97.331,69.967 96.928,69.737C96.526,69.508 96.25,69.108 96.178,68.65C94.815,60.021 89.193,24.411 88.305,18.793C88.231,18.322 88.381,17.843 88.711,17.499C90.952,15.164 99.744,5.999 102.719,2.897C103.276,2.317 104.189,2.268 104.804,2.787C108.923,6.261 123.455,18.515 127.174,21.651C127.691,22.087 127.859,22.811 127.588,23.43C124.913,29.522 111.375,60.359 109.355,64.959C109.194,65.327 108.894,65.616 108.52,65.764C106.709,66.481 101.132,68.689 98.246,69.831Z" style="fill:url(#_Linear1);"/>
                    <path d="M38.968,41.144C39.353,40.59 40.055,40.355 40.695,40.564C45.25,42.053 62.835,47.802 66.36,48.955C66.755,49.084 67.08,49.368 67.26,49.741C68.786,52.902 76.045,67.932 77.784,71.532C78.017,72.014 77.98,72.583 77.688,73.03C76.239,75.247 71.85,81.963 70.155,84.557C69.76,85.162 68.995,85.407 68.323,85.144C63.221,83.149 42.761,75.15 38.351,73.426C37.833,73.224 37.466,72.755 37.394,72.204C36.868,68.186 34.731,51.86 34.299,48.557C34.25,48.181 34.342,47.8 34.559,47.489C35.438,46.224 37.813,42.805 38.968,41.144Z" style="fill:url(#_Linear2);"/>
                    <path d="M4.054,103.123C4.236,102.46 4.838,102 5.526,102C12.217,102 45.472,102 45.472,102C45.472,102 56.174,110.922 59.296,113.525C59.801,113.946 59.979,114.642 59.739,115.254C58.948,117.271 57.203,121.719 56.497,123.521C56.306,124.007 55.88,124.361 55.368,124.461C51.163,125.279 32.127,128.983 28.327,129.722C27.906,129.804 27.469,129.705 27.125,129.449C23.862,127.021 6.799,114.326 2.808,111.357C2.304,110.982 2.082,110.337 2.247,109.731C2.697,108.088 3.585,104.839 4.054,103.123Z" style="fill:url(#_Linear3);"/>
                    <path d="M36.077,142.378C36.077,142.378 48.126,141.781 52.766,141.551C53.213,141.529 53.647,141.704 53.954,142.03C54.26,142.356 54.408,142.8 54.358,143.245C53.996,146.464 53.247,153.132 52.983,155.487C52.924,156.013 52.596,156.471 52.117,156.696C48.54,158.383 33.555,165.446 29.462,167.375C28.848,167.665 28.116,167.514 27.667,167.004C26.847,166.074 25.549,164.602 24.739,163.683C24.303,163.188 24.234,162.468 24.569,161.9C26.949,157.862 36.077,142.378 36.077,142.378Z" style="fill:url(#_Linear4);"/>
                    <path d="M93.769,169.645C93.914,169.167 94.283,168.791 94.758,168.637C96.822,167.967 102.58,166.098 105.39,165.186C105.796,165.054 106.24,165.099 106.612,165.31C106.984,165.52 107.25,165.877 107.347,166.293C108.446,171.042 111.629,184.796 112.386,188.068C112.489,188.514 112.387,188.982 112.107,189.344C110.615,191.276 105.737,197.593 103.586,200.377C103.322,200.719 102.925,200.933 102.495,200.966C102.064,200.999 101.639,200.847 101.327,200.55C98.41,197.771 91.129,190.837 88.868,188.684C88.451,188.286 88.293,187.688 88.46,187.136C89.451,183.871 92.849,172.676 93.769,169.645Z" style="fill:url(#_Linear5);"/>
                    <path d="M126.901,159.422C126.791,158.965 126.897,158.482 127.19,158.114C127.483,157.745 127.93,157.533 128.401,157.538C130.543,157.561 133.869,157.598 135.357,157.614C135.839,157.619 136.29,157.851 136.573,158.24C138.763,161.242 148.281,174.287 150.641,177.521C150.968,177.97 151.026,178.561 150.791,179.065C149.927,180.918 147.811,185.459 146.749,187.738C146.399,188.488 145.514,188.823 144.755,188.491C141.917,187.249 135.468,184.428 133.343,183.498C132.906,183.307 132.584,182.922 132.472,182.459C131.645,179.04 128.165,164.647 126.901,159.422Z" style="fill:url(#_Linear6);"/>
                    <path d="M147.781,141.131C147.684,140.684 147.791,140.217 148.075,139.858C148.359,139.499 148.788,139.287 149.245,139.279C153.172,139.212 162.166,139.057 164.957,139.009C165.481,139 165.973,139.261 166.26,139.7C168.135,142.567 175.209,153.381 177.677,157.155C177.902,157.499 177.979,157.92 177.889,158.321C177.8,158.722 177.553,159.071 177.203,159.287C176.411,159.777 175.44,160.379 174.8,160.775C174.37,161.041 173.837,161.077 173.375,160.871C169.771,159.264 154.036,152.248 150.507,150.675C150.065,150.477 149.742,150.081 149.638,149.608C149.26,147.881 148.321,143.594 147.781,141.131Z" style="fill:url(#_Linear7);"/>
                    <path d="M155.792,117.004C155.679,116.217 156.188,115.475 156.963,115.298C161.31,114.305 174.686,111.249 177.855,110.525C178.286,110.427 178.738,110.52 179.095,110.781C180.438,111.763 183.858,114.262 185.634,115.559C186.264,116.02 186.445,116.881 186.053,117.556C185.188,119.049 183.726,121.571 182.987,122.845C182.707,123.329 182.184,123.62 181.624,123.605C177.735,123.494 162.471,123.06 157.927,122.93C157.185,122.909 156.566,122.358 156.46,121.624C156.274,120.332 155.985,118.337 155.792,117.004Z" style="fill:url(#_Linear8);"/>
                    <path d="M150.006,91.365C149.879,90.878 150.001,90.359 150.332,89.979C151.672,88.443 155.181,84.417 156.473,82.936C156.78,82.583 157.232,82.391 157.699,82.414C159.607,82.51 164.745,82.767 167.603,82.91C168.076,82.933 168.512,83.176 168.782,83.566C169.051,83.956 169.124,84.449 168.979,84.901C168.122,87.562 166.59,92.317 165.919,94.401C165.721,95.016 165.157,95.439 164.512,95.458C161.883,95.535 155.153,95.732 152.386,95.812C151.675,95.833 151.044,95.36 150.865,94.671C150.603,93.663 150.233,92.238 150.006,91.365Z" style="fill:url(#_Linear9);"/>
                </g>
                <g id="center">
                    <g transform="matrix(1,0,0,1,-0.622649,0)">
                        <circle cx="106.158" cy="117" r="10.848" style="fill:url(#_Linear10);"/>
                    </g>
                    <g transform="matrix(1,0,0,1,-212.862,0)">
                        <path d="M336.672,84.931L353.016,63.889C351.965,62.312 351.352,60.419 351.352,58.383C351.352,52.895 355.808,48.438 361.297,48.438C366.786,48.438 371.242,52.895 371.242,58.383C371.242,63.872 366.786,68.328 361.297,68.328C361.006,68.328 360.718,68.316 360.434,68.291L343.564,90.01C350.787,96.748 355.307,106.35 355.307,117C355.307,137.372 338.768,153.911 318.397,153.911C312.285,153.911 306.519,152.422 301.438,149.787L281.321,175.686C279.888,177.531 277.232,177.864 275.388,176.432C275.375,176.422 275.361,176.411 275.348,176.401C274.452,175.705 273.868,174.681 273.727,173.554C273.585,172.428 273.897,171.292 274.593,170.395L294.334,144.98C286.47,138.209 281.487,128.182 281.487,117C281.487,96.629 298.025,80.09 318.397,80.09C325.044,80.09 331.283,81.851 336.672,84.931ZM318.397,90.121C333.232,90.121 345.277,102.165 345.277,117C345.277,131.836 333.232,143.88 318.397,143.88C303.561,143.88 291.517,131.836 291.517,117C291.517,102.165 303.561,90.121 318.397,90.121ZM361.297,53.963C363.736,53.963 365.717,55.944 365.717,58.383C365.717,60.823 363.736,62.803 361.297,62.803C358.857,62.803 356.877,60.823 356.877,58.383C356.877,55.944 358.857,53.963 361.297,53.963Z" style="fill:url(#_Linear11);"/>
                    </g>
                    <g transform="matrix(1,0,0,1,-0.0220698,0.220698)">
                        <circle cx="56.691" cy="183.421" r="5.344" style="fill:url(#_Linear12);"/>
                    </g>
                </g>
            </g>
        </g>
    </g>
    <defs>
        <linearGradient id="_Linear1" x1="0" y1="0" x2="1" y2="0" gradientUnits="userSpaceOnUse" gradientTransform="matrix(82.5589,82.3407,-89.0623,89.2983,67.0566,73.5658)"><stop offset="0" style="stop-color:rgb(126,216,108);stop-opacity:1"/><stop offset="1" style="stop-color:rgb(238,169,2);stop-opacity:1"/></linearGradient>
        <linearGradient id="_Linear2" x1="0" y1="0" x2="1" y2="0" gradientUnits="userSpaceOnUse" gradientTransform="matrix(82.5589,82.3407,-89.0623,89.2983,67.0566,73.5658)"><stop offset="0" style="stop-color:rgb(126,216,108);stop-opacity:1"/><stop offset="1" style="stop-color:rgb(238,169,2);stop-opacity:1"/></linearGradient>
        <linearGradient id="_Linear3" x1="0" y1="0" x2="1" y2="0" gradientUnits="userSpaceOnUse" gradientTransform="matrix(82.5589,82.3407,-89.0623,89.2983,67.0566,73.5658)"><stop offset="0" style="stop-color:rgb(126,216,108);stop-opacity:1"/><stop offset="1" style="stop-color:rgb(238,169,2);stop-opacity:1"/></linearGradient>
        <linearGradient id="_Linear4" x1="0" y1="0" x2="1" y2="0" gradientUnits="userSpaceOnUse" gradientTransform="matrix(82.5589,82.3407,-89.0623,89.2983,67.0566,73.5658)"><stop offset="0" style="stop-color:rgb(126,216,108);stop-opacity:1"/><stop offset="1" style="stop-color:rgb(238,169,2);stop-opacity:1"/></linearGradient>
        <linearGradient id="_Linear5" x1="0" y1="0" x2="1" y2="0" gradientUnits="userSpaceOnUse" gradientTransform="matrix(82.5589,82.3407,-89.0623,89.2983,67.0566,73.5658)"><stop offset="0" style="stop-color:rgb(126,216,108);stop-opacity:1"/><stop offset="1" style="stop-color:rgb(238,169,2);stop-opacity:1"/></linearGradient>
        <linearGradient id="_Linear6" x1="0" y1="0" x2="1" y2="0" gradientUnits="userSpaceOnUse" gradientTransform="matrix(82.5589,82.3407,-89.0623,89.2983,67.0566,73.5658)"><stop offset="0" style="stop-color:rgb(126,216,108);stop-opacity:1"/><stop offset="1" style="stop-color:rgb(238,169,2);stop-opacity:1"/></linearGradient>
        <linearGradient id="_Linear7" x1="0" y1="0" x2="1" y2="0" gradientUnits="userSpaceOnUse" gradientTransform="matrix(82.5589,82.3407,-89.0623,89.2983,67.0566,73.5658)"><stop offset="0" style="stop-color:rgb(126,216,108);stop-opacity:1"/><stop offset="1" style="stop-color:rgb(238,169,2);stop-opacity:1"/></linearGradient>
        <linearGradient id="_Linear8" x1="0" y1="0" x2="1" y2="0" gradientUnits="userSpaceOnUse" gradientTransform="matrix(82.5589,82.3407,-89.0623,89.2983,67.0566,73.5658)"><stop offset="0" style="stop-color:rgb(126,216,108);stop-opacity:1"/><stop offset="1" style="stop-color:rgb(238,169,2);stop-opacity:1"/></linearGradient>
        <linearGradient id="_Linear9" x1="0" y1="0" x2="1" y2="0" gradientUnits="userSpaceOnUse" gradientTransform="matrix(82.5589,82.3407,-89.0623,89.2983,67.0566,73.5658)"><stop offset="0" style="stop-color:rgb(126,216,108);stop-opacity:1"/><stop offset="1" style="stop-color:rgb(238,169,2);stop-opacity:1"/></linearGradient>
        <linearGradient id="_Linear10" x1="0" y1="0" x2="1" y2="0" gradientUnits="userSpaceOnUse" gradientTransform="matrix(82.5589,82.3407,-89.0623,89.2983,67.6792,73.5658)"><stop offset="0" style="stop-color:rgb(126,216,108);stop-opacity:1"/><stop offset="1" style="stop-color:rgb(238,169,2);stop-opacity:1"/></linearGradient>
        <linearGradient id="_Linear11" x1="0" y1="0" x2="1" y2="0" gradientUnits="userSpaceOnUse" gradientTransform="matrix(82.5589,82.3407,-89.0623,89.2983,279.918,73.5658)"><stop offset="0" style="stop-color:rgb(126,216,108);stop-opacity:1"/><stop offset="1" style="stop-color:rgb(238,169,2);stop-opacity:1"/></linearGradient>
        <linearGradient id="_Linear12" x1="0" y1="0" x2="1" y2="0" gradientUnits="userSpaceOnUse" gradientTransform="matrix(82.5589,82.3407,-89.0623,89.2983,67.0787,73.3451)"><stop offset="0" style="stop-color:rgb(126,216,108);stop-opacity:1"/><stop offset="1" style="stop-color:rgb(238,169,2);stop-opacity:1"/></linearGradient>
    </defs>
</svg>
